<svg width="97" height="42" viewBox="0 0 97 42" fill="none" xmlns="http://www.w3.org/2000/svg">
<path d="M20.28 12.7C22.584 12.7 24.496 13.508 26.016 15.124C27.552 16.74 28.32 18.732 28.32 21.1C28.32 23.452 27.552 25.444 26.016 27.076C24.496 28.692 22.584 29.5 20.28 29.5H13.68V12.7H20.28ZM20.28 26.86C21.864 26.86 23.152 26.316 24.144 25.228C25.152 24.14 25.656 22.764 25.656 21.1C25.656 19.42 25.152 18.044 24.144 16.972C23.152 15.884 21.864 15.34 20.28 15.34H16.44V26.86H20.28ZM32.7083 24.604C32.9003 25.516 33.3403 26.22 34.0283 26.716C34.7163 27.196 35.5563 27.436 36.5483 27.436C37.9243 27.436 38.9563 26.94 39.6443 25.948L41.7803 27.196C40.5963 28.94 38.8443 29.812 36.5243 29.812C34.5723 29.812 32.9963 29.22 31.7963 28.036C30.5963 26.836 29.9963 25.324 29.9963 23.5C29.9963 21.708 30.5883 20.212 31.7723 19.012C32.9563 17.796 34.4763 17.188 36.3323 17.188C38.0923 17.188 39.5323 17.804 40.6523 19.036C41.7883 20.268 42.3563 21.764 42.3563 23.524C42.3563 23.796 42.3243 24.156 42.2603 24.604H32.7083ZM32.6842 22.492H39.7403C39.5643 21.516 39.1563 20.78 38.5163 20.284C37.8923 19.788 37.1563 19.54 36.3083 19.54C35.3483 19.54 34.5483 19.804 33.9083 20.332C33.2683 20.86 32.8603 21.58 32.6842 22.492Z" fill="#2C2C2C"/>
<path d="M50.997 12.7C52.581 12.7 53.901 13.228 54.957 14.284C56.029 15.34 56.565 16.652 56.565 18.22C56.565 19.772 56.029 21.084 54.957 22.156C53.901 23.212 52.581 23.74 50.997 23.74H47.565V29.5H44.805V12.7H50.997ZM50.997 21.148C51.813 21.148 52.485 20.876 53.013 20.332C53.541 19.772 53.805 19.068 53.805 18.22C53.805 17.372 53.541 16.676 53.013 16.132C52.485 15.572 51.813 15.292 50.997 15.292H47.565V21.148H50.997ZM67.4535 17.5H70.0455V29.5H67.4535V27.772C66.4775 29.132 65.0775 29.812 63.2535 29.812C61.6055 29.812 60.1975 29.204 59.0295 27.988C57.8615 26.756 57.2775 25.26 57.2775 23.5C57.2775 21.724 57.8615 20.228 59.0295 19.012C60.1975 17.796 61.6055 17.188 63.2535 17.188C65.0775 17.188 66.4775 17.86 67.4535 19.204V17.5ZM60.9495 26.26C61.6695 26.98 62.5735 27.34 63.6615 27.34C64.7495 27.34 65.6535 26.98 66.3735 26.26C67.0935 25.524 67.4535 24.604 67.4535 23.5C67.4535 22.396 67.0935 21.484 66.3735 20.764C65.6535 20.028 64.7495 19.66 63.6615 19.66C62.5735 19.66 61.6695 20.028 60.9495 20.764C60.2295 21.484 59.8695 22.396 59.8695 23.5C59.8695 24.604 60.2295 25.524 60.9495 26.26ZM81.1547 17.5H83.9147L79.3067 29.884C78.1547 32.988 76.2027 34.46 73.4507 34.3V31.876C74.2667 31.924 74.9227 31.748 75.4187 31.348C75.9147 30.964 76.3227 30.356 76.6427 29.524L76.7627 29.284L71.6747 17.5H74.5067L78.0827 26.212L81.1547 17.5Z" fill="#037DE2"/>
</svg>
