<svg width="100" height="100" viewBox="0 0 100 100" fill="none" xmlns="http://www.w3.org/2000/svg">
<path d="M0 16C0 7.16345 7.16344 0 16 0H84C92.8366 0 100 7.16344 100 16V84C100 92.8366 92.8366 100 84 100H16C7.16345 100 0 92.8366 0 84V16Z" fill="#2663EB"/>
<mask id="mask0_4_27" style="mask-type:alpha" maskUnits="userSpaceOnUse" x="0" y="0" width="100" height="100">
<path d="M0 16C0 7.16345 7.16344 0 16 0H84C92.8366 0 100 7.16344 100 16V84C100 92.8366 92.8366 100 84 100H16C7.16345 100 0 92.8366 0 84V16Z" fill="#2663EB"/>
</mask>
<g mask="url(#mask0_4_27)">
<path d="M19.2727 58H7.44318V23.0909H19.5114C22.9773 23.0909 25.9545 23.7898 28.4432 25.1875C30.9432 26.5739 32.8636 28.5682 34.2045 31.1705C35.5455 33.7727 36.2159 36.8864 36.2159 40.5114C36.2159 44.1477 35.5398 47.2727 34.1875 49.8864C32.8466 52.5 30.9091 54.5057 28.375 55.9034C25.8523 57.3011 22.8182 58 19.2727 58ZM13.767 52.5284H18.9659C21.3977 52.5284 23.4261 52.0852 25.0511 51.1989C26.6761 50.3011 27.8977 48.9659 28.7159 47.1932C29.5341 45.4091 29.9432 43.1818 29.9432 40.5114C29.9432 37.8409 29.5341 35.625 28.7159 33.8636C27.8977 32.0909 26.6875 30.767 25.0852 29.892C23.4943 29.0057 21.517 28.5625 19.1534 28.5625H13.767V52.5284ZM53.5426 58.5114C50.9176 58.5114 48.6506 57.9659 46.7415 56.875C44.8438 55.7727 43.3835 54.2159 42.3608 52.2045C41.3381 50.1818 40.8267 47.8011 40.8267 45.0625C40.8267 42.3693 41.3381 40.0057 42.3608 37.9716C43.3949 35.9261 44.8381 34.3352 46.6903 33.1989C48.5426 32.0511 50.7188 31.4773 53.2188 31.4773C54.8324 31.4773 56.3551 31.7386 57.7869 32.2614C59.2301 32.7727 60.5028 33.5682 61.6051 34.6477C62.7188 35.7273 63.5938 37.1023 64.2301 38.7727C64.8665 40.4318 65.1847 42.4091 65.1847 44.7045V46.5966H43.7244V42.4375H59.2699C59.2585 41.2557 59.0028 40.2045 58.5028 39.2841C58.0028 38.3523 57.304 37.6193 56.4062 37.0852C55.5199 36.5511 54.4858 36.2841 53.304 36.2841C52.0426 36.2841 50.9347 36.5909 49.9801 37.2045C49.0256 37.8068 48.2813 38.6023 47.7472 39.5909C47.2244 40.5682 46.9574 41.642 46.946 42.8125V46.4432C46.946 47.9659 47.2244 49.2727 47.7812 50.3636C48.3381 51.4432 49.1165 52.2727 50.1165 52.8523C51.1165 53.4205 52.2869 53.7045 53.6278 53.7045C54.5256 53.7045 55.3381 53.5795 56.0653 53.3295C56.7926 53.0682 57.4233 52.6875 57.9574 52.1875C58.4915 51.6875 58.8949 51.0682 59.1676 50.3295L64.929 50.9773C64.5653 52.5 63.8722 53.8295 62.8494 54.9659C61.8381 56.0909 60.5426 56.9659 58.9631 57.5909C57.3835 58.2045 55.5767 58.5114 53.5426 58.5114Z" fill="#3E3E3E"/>
<path d="M7.17045 99.8182V63.8182H13.2386V68.1477H13.5966C13.9148 67.5114 14.3636 66.8352 14.9432 66.1193C15.5227 65.392 16.3068 64.7727 17.2955 64.2614C18.2841 63.7386 19.5455 63.4773 21.0795 63.4773C23.1023 63.4773 24.9261 63.9943 26.5511 65.0284C28.1875 66.0511 29.483 67.5682 30.4375 69.5795C31.4034 71.5795 31.8864 74.0341 31.8864 76.9432C31.8864 79.8182 31.4148 82.2614 30.4716 84.2727C29.5284 86.2841 28.2443 87.8182 26.6193 88.875C24.9943 89.9318 23.1534 90.4602 21.0966 90.4602C19.5966 90.4602 18.3523 90.2102 17.3636 89.7102C16.375 89.2102 15.5795 88.608 14.9773 87.9034C14.3864 87.1875 13.9261 86.5114 13.5966 85.875H13.3409V99.8182H7.17045ZM13.2216 76.9091C13.2216 78.6023 13.4602 80.0852 13.9375 81.358C14.4261 82.6307 15.125 83.625 16.0341 84.3409C16.9545 85.0455 18.0682 85.3977 19.375 85.3977C20.7386 85.3977 21.8807 85.0341 22.8011 84.3068C23.7216 83.5682 24.4148 82.5625 24.8807 81.2898C25.358 80.0057 25.5966 78.5455 25.5966 76.9091C25.5966 75.2841 25.3636 73.8409 24.8977 72.5795C24.4318 71.3182 23.7386 70.3295 22.8182 69.6136C21.8977 68.8977 20.75 68.5398 19.375 68.5398C18.0568 68.5398 16.9375 68.8864 16.017 69.5795C15.0966 70.2727 14.3977 71.2443 13.9205 72.4943C13.4545 73.7443 13.2216 75.2159 13.2216 76.9091ZM44.7045 90.5284C43.0455 90.5284 41.5511 90.233 40.2216 89.642C38.9034 89.0398 37.858 88.1534 37.0852 86.983C36.3239 85.8125 35.9432 84.3693 35.9432 82.6534C35.9432 81.1761 36.2159 79.9545 36.7614 78.9886C37.3068 78.0227 38.0511 77.25 38.9943 76.6705C39.9375 76.0909 41 75.6534 42.1818 75.358C43.375 75.0511 44.608 74.8295 45.8807 74.6932C47.4148 74.5341 48.6591 74.392 49.6136 74.267C50.5682 74.1307 51.2614 73.9261 51.6932 73.6534C52.1364 73.3693 52.358 72.9318 52.358 72.3409V72.2386C52.358 70.9545 51.9773 69.9602 51.2159 69.2557C50.4545 68.5511 49.358 68.1989 47.9261 68.1989C46.4148 68.1989 45.2159 68.5284 44.3295 69.1875C43.4545 69.8466 42.8636 70.625 42.5568 71.5227L36.7955 70.7045C37.25 69.1136 38 67.7841 39.0455 66.7159C40.0909 65.6364 41.3693 64.8295 42.8807 64.2955C44.392 63.75 46.0625 63.4773 47.892 63.4773C49.1534 63.4773 50.4091 63.625 51.6591 63.9205C52.9091 64.2159 54.0511 64.7045 55.0852 65.3864C56.1193 66.0568 56.9489 66.9716 57.5739 68.1307C58.2102 69.2898 58.5284 70.7386 58.5284 72.4773V90H52.5966V86.4034H52.392C52.017 87.1307 51.4886 87.8125 50.8068 88.4489C50.1364 89.0739 49.2898 89.5795 48.267 89.9659C47.2557 90.3409 46.0682 90.5284 44.7045 90.5284ZM46.3068 85.9943C47.5455 85.9943 48.6193 85.75 49.5284 85.2614C50.4375 84.7614 51.1364 84.1023 51.625 83.2841C52.125 82.4659 52.375 81.5739 52.375 80.608V77.5227C52.1818 77.6818 51.8523 77.8295 51.3864 77.9659C50.9318 78.1023 50.4205 78.2216 49.8523 78.3239C49.2841 78.4261 48.7216 78.517 48.1648 78.5966C47.608 78.6761 47.125 78.7443 46.7159 78.8011C45.7955 78.9261 44.9716 79.1307 44.2443 79.4148C43.517 79.6989 42.9432 80.0966 42.5227 80.608C42.1023 81.108 41.892 81.7557 41.892 82.5511C41.892 83.6875 42.3068 84.5455 43.1364 85.125C43.9659 85.7045 45.0227 85.9943 46.3068 85.9943ZM67.6307 99.8182C66.7898 99.8182 66.0114 99.75 65.2955 99.6136C64.5909 99.4886 64.0284 99.3409 63.608 99.1705L65.0398 94.3636C65.9375 94.625 66.7386 94.75 67.4432 94.7386C68.1477 94.7273 68.767 94.5057 69.3011 94.0739C69.8466 93.6534 70.3068 92.9489 70.6818 91.9602L71.2102 90.5455L61.7159 63.8182H68.2614L74.2955 83.5909H74.5682L80.6193 63.8182H87.1818L76.6989 93.1705C76.2102 94.5568 75.5625 95.7443 74.7557 96.733C73.9489 97.733 72.9602 98.4943 71.7898 99.017C70.6307 99.5511 69.2443 99.8182 67.6307 99.8182Z" fill="#D9D9D9"/>
</g>
</svg>
